<svg width="65" height="64" viewBox="0 0 65 64" fill="none" xmlns="http://www.w3.org/2000/svg">
<path d="M51.5 39C51.5 39 46.5 35 39.5 35C32.5 35 29.5 39 29.5 39C29.5 39 16.5 34 9.5 41C9.5 43.209 11.291 45 13.5 45H51.5C53.709 45 55.5 43.209 55.5 41V15C55.5 12.791 53.709 11 51.5 11H13.5C11.291 11 9.5 12.791 9.5 15V36M39.5 31V35V31ZM42.5 28C42.5 24 41.687 19 39.5 19C37.333 19 36.5 24 36.5 28C36.5 29.771 37.729 31 39.5 31C41.312 31 42.5 29.75 42.5 28ZM18.672 18.171L20.084 19.584L18.672 18.171ZM21.501 16.999L21.5 18.998L21.501 16.999ZM24.33 18.171L22.916 19.583L24.33 18.171ZM25.502 21L23.504 20.999L25.502 21ZM22.918 22.415L24.33 23.829L22.918 22.415ZM21.501 25.001L21.502 23.001L21.501 25.001ZM18.672 23.829L20.086 22.415L18.672 23.829ZM17.5 21H19.5H17.5ZM21.5 19C20.396 19 19.5 19.896 19.5 21C19.5 22.104 20.396 23 21.5 23C22.604 23 23.5 22.104 23.5 21C23.5 19.896 22.604 19 21.5 19ZM45.5 61L39.5 49L45.5 61ZM19.5 61L25.5 49L19.5 61ZM32.5 61V49V61ZM32.5 3V7V3ZM25.5 7H39.5H25.5ZM21.5 49H43.5H21.5Z" stroke="#12131A" stroke-width="2" stroke-linecap="round" stroke-linejoin="round"/>
</svg>
