<svg width="65" height="64" viewBox="0 0 65 64" fill="none" xmlns="http://www.w3.org/2000/svg">
<path d="M21.8333 55.0256V60.6666M9.83334 56.6666V60.6666M9.83334 37.6666C9.83334 37.6666 9.83334 36.6666 13.8333 36.6666C19.8333 36.6666 21.8333 42.6666 23.8333 42.6666H36.8333M13.8333 40.6666H5.83334C4.72934 40.6666 3.83334 41.5616 3.83334 42.6666C3.83334 43.7706 4.72934 44.6666 5.83334 44.6666C4.72934 44.6666 3.83334 45.5616 3.83334 46.6666C3.83334 47.7706 4.72934 48.6666 5.83334 48.6666C4.72934 48.6666 3.83334 49.5616 3.83334 50.6666C3.83334 51.7706 4.72934 52.6666 5.83334 52.6666C4.72934 52.6666 3.83334 53.5616 3.83334 54.6666C3.83334 55.7706 4.72934 56.6666 5.83334 56.6666H14.8333C17.8333 56.6666 21.8333 54.6666 23.8333 54.6666H33.8333M56.1923 42.6666H61.8333M57.8333 54.6666H61.8333M38.8333 54.6666C38.8333 54.6666 37.8333 54.6666 37.8333 50.6666C37.8333 44.6666 43.8333 42.6666 43.8333 40.6666V27.6666M41.8333 50.6666V58.6666C41.8333 59.7706 42.7293 60.6666 43.8333 60.6666C44.9373 60.6666 45.8333 59.7706 45.8333 58.6666C45.8333 59.7706 46.7293 60.6666 47.8333 60.6666C48.9373 60.6666 49.8333 59.7706 49.8333 58.6666C49.8333 59.7706 50.7293 60.6666 51.8333 60.6666C52.9373 60.6666 53.8333 59.7706 53.8333 58.6666C53.8333 59.7706 54.7293 60.6666 55.8333 60.6666C56.9373 60.6666 57.8333 59.7706 57.8333 58.6666V49.6666C57.8333 46.6666 55.8333 42.6666 55.8333 40.6666V30.6666M43.8333 8.30663V2.66663M55.8333 6.66663V2.66663M55.8333 25.6666C55.8333 25.6666 55.8333 26.6666 51.8333 26.6666C45.8333 26.6666 43.8333 20.6666 41.8333 20.6666H28.8333M51.8333 22.6666H59.8333C60.9373 22.6666 61.8333 21.7706 61.8333 20.6666C61.8333 19.5616 60.9373 18.6666 59.8333 18.6666C60.9373 18.6666 61.8333 17.7706 61.8333 16.6666C61.8333 15.5616 60.9373 14.6666 59.8333 14.6666C60.9373 14.6666 61.8333 13.7706 61.8333 12.6666C61.8333 11.5616 60.9373 10.6666 59.8333 10.6666C60.9373 10.6666 61.8333 9.77063 61.8333 8.66663C61.8333 7.56163 60.9373 6.66663 59.8333 6.66663H50.8333C47.8333 6.66663 43.8333 8.66663 41.8333 8.66663H31.8333M9.47434 20.6666H3.83334M7.83334 8.66663H3.83334M26.8333 8.66663C26.8333 8.66663 27.8333 8.66663 27.8333 12.6666C27.8333 18.6666 21.8333 20.6666 21.8333 22.6666V35.6666M9.83334 32.6666V22.6666C9.83334 20.6666 7.83334 16.6666 7.83334 13.6666V4.66663C7.83334 3.56163 8.72934 2.66663 9.83334 2.66663C10.9373 2.66663 11.8333 3.56163 11.8333 4.66663C11.8333 3.56163 12.7293 2.66663 13.8333 2.66663C14.9373 2.66663 15.8333 3.56163 15.8333 4.66663C15.8333 3.56163 16.7293 2.66663 17.8333 2.66663C18.9373 2.66663 19.8333 3.56163 19.8333 4.66663C19.8333 3.56163 20.7293 2.66663 21.8333 2.66663C22.9373 2.66663 23.8333 3.56163 23.8333 4.66663V12.6666" stroke="black" stroke-width="2" stroke-linecap="round" stroke-linejoin="round"/>
</svg>
