<svg width="65" height="64" viewBox="0 0 65 64" fill="none" xmlns="http://www.w3.org/2000/svg">
<path d="M35.8334 36.6666H57.8334C60.0424 36.6666 61.8334 34.8756 61.8334 32.6666V6.66663C61.8334 4.45763 60.0424 2.66663 57.8334 2.66663H7.83337C5.62437 2.66663 3.83337 4.45763 3.83337 6.66663V32.6666C3.83337 34.8756 5.62437 36.6666 7.83337 36.6666H31.8334V60.6666M29.8334 22.6666C29.8334 24.3226 31.1774 25.6666 32.8334 25.6666C34.4894 25.6666 35.8334 24.3226 35.8334 22.6666C35.8334 21.0106 34.4894 19.6666 32.8334 19.6666C31.1774 19.6666 29.8334 18.3226 29.8334 16.6666C29.8334 15.0106 31.1774 13.6666 32.8334 13.6666C34.4894 13.6666 35.8334 15.0106 35.8334 16.6666M38.8334 52.6666C38.8334 52.6666 41.8334 52.6666 43.8334 50.6666C45.8334 48.6666 45.8334 45.6666 45.8334 45.6666V42.6666H42.8334C42.8334 42.6666 39.8334 42.6666 37.8334 44.6666C35.8334 46.6666 35.8334 49.6666 35.8334 49.6666V52.6666H38.8334ZM27.8334 58.6666V55.6666C27.8334 55.6666 27.8334 52.6666 25.8334 50.6666C23.8334 48.6666 20.8334 48.6666 20.8334 48.6666H17.8334V51.6666C17.8334 51.6666 17.8334 54.6666 19.8334 56.6666C21.8334 58.6666 24.8334 58.6666 24.8334 58.6666H27.8334ZM32.8334 13.6666V12.6666V13.6666ZM32.8334 26.6666V25.6666V26.6666ZM51.8334 6.66663C51.8334 9.97963 54.5204 12.6666 57.8334 12.6666V26.6666C54.5204 26.6666 51.8334 29.3536 51.8334 32.6666H13.8334C13.8334 29.3536 11.1464 26.6666 7.83337 26.6666V12.6666C11.1464 12.6666 13.8334 9.97963 13.8334 6.66663H51.8334Z" stroke="#12131A" stroke-width="2" stroke-linecap="round" stroke-linejoin="round"/>
</svg>
