<svg width="65" height="64" viewBox="0 0 65 64" fill="none" xmlns="http://www.w3.org/2000/svg">
<path d="M56.411 11.6666C56.411 11.6666 57.143 14.3986 54.411 15.1306C51.678 15.8616 54.143 19.5946 51.411 20.3266C48.678 21.0596 49.411 23.7906 49.411 23.7906M59.611 26.6666C59.611 26.6666 61.611 28.6666 59.611 30.6666C57.611 32.6666 61.611 34.6666 59.611 36.6666C57.611 38.6666 59.611 40.6666 59.611 40.6666M13.5 24.7906C13.5 24.7906 10.768 24.0586 11.5 21.3266C12.232 18.5946 7.768 18.8626 8.5 16.1306C9.232 13.3986 6.5 12.6666 6.5 12.6666M31.937 12.4796L12.5 60.6666H54.5L36.335 15.6876M35.469 25.3226L25.958 27.5836L35.469 25.3226ZM38.937 34.4166L21.5 38.5416L38.937 34.4166ZM17.083 49.5626L43 43.4476L17.083 49.5626ZM12.5 60.6666L47.156 52.4786L12.5 60.6666ZM33.5 12.6666C30.739 12.6666 28.5 10.4276 28.5 7.66663C28.5 4.90563 30.739 2.66663 33.5 2.66663C36.261 2.66663 38.5 4.90563 38.5 7.66663C38.5 10.4276 36.261 12.6666 33.5 12.6666Z" stroke="black" stroke-width="2" stroke-linecap="round" stroke-linejoin="round"/>
</svg>
